<svg width="600" height="160" viewBox="0 0 680 200" xmlns="http://www.w3.org/2000/svg">
  <defs>
    <clipPath id="bc"><rect x="44" y="56" width="90" height="90" rx="22"/></clipPath>
  </defs>

  <rect x="40" y="52" width="98" height="98" rx="26" fill="none" stroke="#C68A00" stroke-width="1" opacity="0.3"/>
  <rect x="44" y="56" width="90" height="90" rx="22" fill="#111A24" stroke="#C68A00" stroke-width="1"/>
  <rect x="45" y="57" width="88" height="88" rx="21" fill="none" stroke="white" stroke-width="0.5" opacity="0.08"/>

  <g clip-path="url(#bc)">
    <g stroke="white" stroke-linecap="round" fill="none" stroke-width="3.5">
      <line x1="66" y1="80"  x2="66"  y2="126"/>
      <line x1="66" y1="80"  x2="114" y2="80"/>
      <line x1="66" y1="103" x2="104" y2="103"/>
      <line x1="66" y1="126" x2="114" y2="126"/>
    </g>
    <circle cx="114" cy="80"  r="4.5" fill="none" stroke="#E8A020" stroke-width="2.5"/>
    <circle cx="114" cy="80"  r="1.8" fill="#E8A020"/>
    <circle cx="104" cy="103" r="4.5" fill="none" stroke="#E8A020" stroke-width="2.5"/>
    <circle cx="104" cy="103" r="1.8" fill="#E8A020"/>
    <circle cx="114" cy="126" r="4.5" fill="none" stroke="#E8A020" stroke-width="2.5"/>
    <circle cx="114" cy="126" r="1.8" fill="#E8A020"/>
    <line x1="118" y1="80"  x2="125" y2="80"  stroke="#E8A020" stroke-width="1.5" stroke-linecap="round"/>
    <line x1="108" y1="103" x2="115" y2="103" stroke="#E8A020" stroke-width="1.5" stroke-linecap="round"/>
    <line x1="118" y1="126" x2="125" y2="126" stroke="#E8A020" stroke-width="1.5" stroke-linecap="round"/>
    <line x1="66" y1="57"  x2="66" y2="72"  stroke="#E8A020" stroke-width="1.5" stroke-linecap="round" opacity="0.6"/>
    <line x1="66" y1="134" x2="66" y2="145" stroke="#E8A020" stroke-width="1.5" stroke-linecap="round" opacity="0.6"/>
    <circle cx="66" cy="80"  r="3" fill="#111A24" stroke="white" stroke-width="1.5"/>
    <circle cx="66" cy="126" r="3" fill="#111A24" stroke="white" stroke-width="1.5"/>
  </g>

  <line x1="156" y1="74" x2="156" y2="130" stroke="#CCCCCC" stroke-width="1"/>

  <text font-family="system-ui,sans-serif" font-size="50" y="124" x="172" letter-spacing="-1">
    <tspan fill="#1a1a18" font-weight="300">examiner</tspan><tspan fill="#E8A020" font-weight="500">AI</tspan>
  </text>

  <text font-family="system-ui,sans-serif" font-size="11" y="148" x="174" fill="#73726c" letter-spacing="3.5">INTELLIGENT ANSWER EVALUATION</text>
</svg>
